<svg width="512" height="512" viewBox="0 0 24 24" fill="none" xmlns="http://www.w3.org/2000/svg">
<path d="M17.5 9.5L15.4142 7.41421C14.6332 6.63316 13.3668 6.63316 12.5858 7.41421L8.5 11.5L2.5 17.5L6.5 21.5L12.5 15.5L17.5 10.5L16.5 9.5" fill="#9D32D6" fill-opacity="0.2"/>
<path d="M2.5 17.5L6.5 21.5M17.5 9.5L16.5 10.5M17.5 9.5L15.4142 7.41421C14.6332 6.63316 13.3668 6.63316 12.5858 7.41421L8.5 11.5L2.5 17.5M8.5 11.5L12.5 15.5L16.5 10.5M8.5 11.5L12.5 7.5M16.5 10.5L12.5 15.5M12.5 15.5L13.5 14.5M12.5 15.5L11.5 16.5M12.5 7.5L11.5 8.5M12.5 7.5L13.5 6.5M21.5 2.5L17.5 6.5" stroke="#9D32D6" stroke-width="1.5" stroke-linecap="round" stroke-linejoin="round"/>
</svg>
